<?xml version="1.0" encoding="utf-8"?>
<!-- Generator: Adobe Illustrator 22.1.0, SVG Export Plug-In . SVG Version: 6.00 Build 0)  -->
<svg version="1.1"
	 id="Layer_1" image-rendering="optimizeQuality" text-rendering="geometricPrecision" shape-rendering="geometricPrecision"
	 xmlns="http://www.w3.org/2000/svg" xmlns:xlink="http://www.w3.org/1999/xlink" x="0px" y="0px" viewBox="0 0 439.5 453"
	 style="enable-background:new 0 0 439.5 453;" xml:space="preserve">
<style type="text/css">
	.st0{fill:#FFB647;}
	.st1{enable-background:new    ;}
</style>
<g>
	<path class="st0" d="M90.6,20.8H348c44.2,0,80.4,36.2,80.4,80.4v257.3c0,44.2-36.2,80.4-80.4,80.4H90.6
		c-44.2,0-80.4-36.2-80.4-80.4V101.2C10.2,57,46.4,20.8,90.6,20.8z M315.8,374.6c26.7,0,48.3-21.6,48.3-48.3
		c0-26.6-21.6-48.3-48.3-48.3c-26.7,0-48.3,21.6-48.3,48.3C267.6,353,289.2,374.6,315.8,374.6z M315.8,181.6
		c26.7,0,48.3-21.6,48.3-48.3S342.5,85,315.8,85c-26.7,0-48.3,21.6-48.3,48.3C267.6,160,289.2,181.6,315.8,181.6z M219.3,278.1
		c26.7,0,48.3-21.6,48.3-48.3s-21.6-48.3-48.3-48.3S171,203.1,171,229.8C171.1,256.5,192.6,278.1,219.3,278.1z M122.8,374.6
		c26.7,0,48.3-21.6,48.3-48.3c0-26.6-21.6-48.3-48.3-48.3s-48.3,21.6-48.3,48.3S96.1,374.6,122.8,374.6z M122.8,181.6
		c26.7,0,48.3-21.6,48.3-48.3S149.5,85,122.8,85s-48.3,21.6-48.3,48.3S96.1,181.6,122.8,181.6z"/>
</g>
<text transform="matrix(1 0 0 1 -229.7428 6334.4355)" style="font-family:'HelveticaNeue-Bold'; font-size:5px;">Created by fafa maulinda</text>
<text transform="matrix(1 0 0 1 -229.7428 6334.4385)" style="font-family:'HelveticaNeue-Bold'; font-size:5px;">from the Noun Project</text>
</svg>
